<svg xmlns="http://www.w3.org/2000/svg" width="512" height="512" viewBox="0 0 512 512"><path d="M452,40H428V0H388V40H124V0H84V40H60A60.068,60.068,0,0,0,0,100V452a60.068,60.068,0,0,0,60,60H452a60.068,60.068,0,0,0,60-60V100A60.068,60.068,0,0,0,452,40Zm20,412a20.023,20.023,0,0,1-20,20H60a20.023,20.023,0,0,1-20-20V188H472Zm0-304H40V100A20.023,20.023,0,0,1,60,80H84v40h40V80H388v40h40V80h24a20.023,20.023,0,0,1,20,20Z" fill="#fff"/><rect width="40" height="40" transform="translate(76 230)" fill="#fff"/><rect width="40" height="40" transform="translate(156 230)" fill="#fff"/><rect width="40" height="40" transform="translate(236 230)" fill="#fff"/><rect width="40" height="40" transform="translate(316 230)" fill="#fff"/><rect width="40" height="40" transform="translate(396 230)" fill="#fff"/><rect width="40" height="40" transform="translate(76 310)" fill="#fff"/><rect width="40" height="40" transform="translate(156 310)" fill="#fff"/><rect width="40" height="40" transform="translate(236 310)" fill="#fff"/><rect width="40" height="40" transform="translate(316 310)" fill="#fff"/><rect width="40" height="40" transform="translate(76 390)" fill="#fff"/><rect width="40" height="40" transform="translate(156 390)" fill="#fff"/><rect width="40" height="40" transform="translate(236 390)" fill="#fff"/><rect width="40" height="40" transform="translate(316 390)" fill="#fff"/><rect width="40" height="40" transform="translate(396 310)" fill="#fff"/></svg>